<svg width="2146" height="1073" viewBox="0 0 2146 1073" fill="none" xmlns="http://www.w3.org/2000/svg">
<path d="M935.554 431.374L916.783 392.718L971.465 385.013L935.554 431.374Z" fill="url(#paint0_linear_30_1367)"/>
<path d="M783.46 627.723L864.782 522.739L715.044 457.718L425.98 600.522L553.257 302.326L441.248 71.6619L394.888 68.5095L363.296 0L165.854 20.7132L0 235.794V355.287L126.364 495.489L271.684 465.218L382.255 487.522L358.562 573.555L434.378 712.164L396.471 809.349L485.96 1073L606.552 1053.11L717.123 927.247L726.598 839.619L797.679 785.451L783.46 627.723Z" fill="url(#paint1_linear_30_1367)"/>
<path d="M704.701 138.005L572.465 80.5843L676.052 87.628L704.701 138.005Z" fill="url(#paint2_linear_30_1367)"/>
<path d="M930.828 725.451L898.437 772.77L868.282 773.896C841.634 829.067 839.949 860.14 837.005 924.854L876.1 934.996L925.245 816.704L930.828 725.451Z" fill="url(#paint3_linear_30_1367)"/>
<path fill-rule="evenodd" clip-rule="evenodd" d="M1153.34 107.287C1152.14 108.093 1151.28 109.101 1150.74 110.311L1092.78 246.788C1092.25 247.863 1092.05 248.804 1092.18 249.61C1092.32 250.417 1092.65 251.089 1093.18 251.626C1093.58 252.164 1094.18 252.567 1094.98 252.836C1095.65 253.104 1096.31 253.239 1096.98 253.239H1131.36C1132.69 253.239 1133.95 252.836 1135.15 252.029C1136.49 251.089 1137.42 250.013 1137.95 248.804L1143.55 236.708C1144.08 235.499 1144.95 234.491 1146.15 233.685C1147.48 232.744 1148.88 232.273 1150.34 232.273H1192.51C1193.85 232.273 1195.11 232.744 1196.31 233.685C1197.64 234.491 1198.64 235.499 1199.31 236.708L1204.71 248.804C1205.37 250.013 1206.31 251.089 1207.5 252.029C1208.84 252.836 1210.24 253.239 1211.7 253.239H1245.88C1248.01 253.239 1249.41 252.567 1250.08 251.223C1250.88 249.879 1251.01 248.602 1250.48 247.393L1192.11 110.311C1191.58 109.101 1190.65 108.093 1189.32 107.287C1188.12 106.346 1186.85 105.876 1185.52 105.876H1157.54C1156.07 105.876 1154.67 106.346 1153.34 107.287ZM1180.32 198.003H1162.54C1161.07 198.003 1160.07 197.6 1159.54 196.793C1159 195.853 1159 194.777 1159.54 193.568L1169.53 169.175C1170.06 167.966 1170.66 167.361 1171.33 167.361C1172 167.361 1172.59 167.966 1173.13 169.175C1174.73 173.073 1176.46 177.306 1178.32 181.876C1180.19 186.311 1181.79 190.208 1183.12 193.568C1183.79 194.777 1183.79 195.853 1183.12 196.793C1182.59 197.6 1181.66 198.003 1180.32 198.003Z" fill="url(#paint4_linear_30_1367)"/>
<path d="M1304.07 156.273V147.807C1304.07 146.463 1304.54 145.32 1305.47 144.379C1306.4 143.439 1307.53 142.968 1308.87 142.968H1370.83C1372.16 142.968 1373.29 142.498 1374.22 141.557C1375.16 140.616 1375.62 139.474 1375.62 138.13V110.512C1375.62 109.168 1375.16 108.026 1374.22 107.085C1373.29 106.144 1372.16 105.674 1370.83 105.674H1269.09C1267.76 105.674 1266.63 106.144 1265.7 107.085C1264.76 108.026 1264.3 109.168 1264.3 110.512V248.401C1264.3 249.745 1264.76 250.887 1265.7 251.828C1266.63 252.769 1267.76 253.239 1269.09 253.239H1299.27C1300.61 253.239 1301.74 252.769 1302.67 251.828C1303.6 250.887 1304.07 249.745 1304.07 248.401V203.849C1304.07 202.505 1304.54 201.363 1305.47 200.422C1306.4 199.481 1307.53 199.011 1308.87 199.011H1362.83C1364.16 199.011 1365.3 198.54 1366.23 197.6C1367.16 196.659 1367.63 195.517 1367.63 194.173V165.95C1367.63 164.606 1367.16 163.463 1366.23 162.523C1365.3 161.582 1364.16 161.112 1362.83 161.112H1308.87C1307.53 161.112 1306.4 160.641 1305.47 159.7C1304.54 158.76 1304.07 157.617 1304.07 156.273Z" fill="url(#paint5_linear_30_1367)"/>
<path fill-rule="evenodd" clip-rule="evenodd" d="M1399.87 253.239H1429.65C1430.99 253.239 1432.12 252.769 1433.05 251.828C1433.98 250.887 1434.45 249.745 1434.45 248.401V215.743C1434.45 214.399 1434.92 213.257 1435.85 212.316C1436.78 211.375 1437.92 210.905 1439.25 210.905H1443.64C1444.98 210.905 1446.38 211.308 1447.84 212.114C1449.31 212.786 1450.44 213.66 1451.24 214.735C1455.37 220.648 1459.5 226.494 1463.63 232.273C1467.9 238.052 1472.16 243.764 1476.42 249.409C1477.22 250.484 1478.35 251.425 1479.82 252.231C1481.42 252.903 1482.89 253.239 1484.22 253.239H1521.39C1522.72 253.239 1523.59 252.634 1523.99 251.425C1524.39 250.081 1524.19 248.871 1523.39 247.796C1518.99 241.883 1514 235.364 1508.4 228.242C1502.81 221.119 1497.48 214.197 1492.41 207.478C1491.61 206.402 1491.35 205.327 1491.61 204.252C1492.01 203.043 1492.75 202.035 1493.81 201.228C1497.01 199.212 1499.87 196.726 1502.41 193.769C1504.94 190.678 1507.14 187.251 1509 183.488C1510.87 179.725 1512.27 175.761 1513.2 171.594C1514.26 167.294 1514.8 162.993 1514.8 158.692C1514.8 150.898 1513.46 143.775 1510.8 137.324C1508.27 130.873 1504.67 125.295 1500.01 120.592C1495.48 115.888 1489.95 112.259 1483.42 109.706C1476.89 107.018 1469.76 105.674 1462.03 105.674H1399.87C1398.54 105.674 1397.41 106.144 1396.48 107.085C1395.54 108.026 1395.08 109.168 1395.08 110.512V248.401C1395.08 249.745 1395.54 250.887 1396.48 251.828C1397.41 252.769 1398.54 253.239 1399.87 253.239ZM1460.43 173.812H1439.25C1437.92 173.812 1436.78 173.341 1435.85 172.401C1434.92 171.46 1434.45 170.318 1434.45 168.974V147.605C1434.45 146.261 1434.92 145.119 1435.85 144.178C1436.78 143.237 1437.92 142.767 1439.25 142.767H1460.43C1463.23 142.767 1465.56 143.372 1467.43 144.581C1469.43 145.656 1470.96 147.067 1472.03 148.815C1473.22 150.427 1474.02 152.174 1474.42 154.056C1474.96 155.803 1475.22 157.349 1475.22 158.692C1475.22 161.246 1474.76 163.463 1473.82 165.345C1472.89 167.227 1471.69 168.839 1470.23 170.183C1468.76 171.393 1467.16 172.334 1465.43 173.005C1463.7 173.543 1462.03 173.812 1460.43 173.812Z" fill="url(#paint6_linear_30_1367)"/>
<path fill-rule="evenodd" clip-rule="evenodd" d="M1538.33 149.822C1534.33 159.096 1532.33 168.974 1532.33 179.456C1532.33 189.939 1534.33 199.817 1538.33 209.09C1542.32 218.364 1547.72 226.494 1554.52 233.483C1561.31 240.337 1569.31 245.78 1578.5 249.812C1587.69 253.844 1597.49 255.86 1607.88 255.86C1618.27 255.86 1628.07 253.844 1637.26 249.812C1646.45 245.78 1654.45 240.337 1661.24 233.483C1668.17 226.494 1673.63 218.364 1677.63 209.09C1681.63 199.817 1683.63 189.939 1683.63 179.456C1683.63 168.974 1681.63 159.096 1677.63 149.822C1673.63 140.549 1668.17 132.486 1661.24 125.631C1654.45 118.643 1646.45 113.133 1637.26 109.101C1628.07 105.069 1618.27 103.053 1607.88 103.053C1597.49 103.053 1587.69 105.069 1578.5 109.101C1569.31 113.133 1561.31 118.643 1554.52 125.631C1547.72 132.486 1542.32 140.549 1538.33 149.822ZM1574.7 193.971C1572.84 189.402 1571.9 184.563 1571.9 179.456C1571.9 174.484 1572.84 169.713 1574.7 165.143C1576.57 160.44 1579.1 156.408 1582.3 153.048C1585.63 149.554 1589.49 146.799 1593.89 144.783C1598.29 142.632 1602.95 141.557 1607.88 141.557C1612.81 141.557 1617.47 142.632 1621.87 144.783C1626.27 146.799 1630.13 149.554 1633.46 153.048C1636.79 156.408 1639.39 160.44 1641.26 165.143C1643.12 169.713 1644.05 174.484 1644.05 179.456C1644.05 184.563 1643.12 189.402 1641.26 193.971C1639.39 198.54 1636.79 202.572 1633.46 206.066C1630.13 209.561 1626.27 212.383 1621.87 214.533C1617.47 216.549 1612.81 217.557 1607.88 217.557C1602.95 217.557 1598.29 216.549 1593.89 214.533C1589.49 212.383 1585.63 209.561 1582.3 206.066C1579.1 202.572 1576.57 198.54 1574.7 193.971Z" fill="url(#paint7_linear_30_1367)"/>
<path d="M1236.09 511.161C1240.75 505.92 1245.01 500.141 1248.88 493.824C1249.54 492.615 1249.68 491.472 1249.28 490.397C1248.88 489.188 1248.08 488.314 1246.88 487.776L1218.5 476.487C1217.16 475.95 1215.83 475.95 1214.5 476.487C1213.3 477.025 1212.37 477.831 1211.7 478.906C1208.24 484.551 1203.51 489.188 1197.51 492.816C1191.65 496.311 1185.05 498.058 1177.72 498.058C1172.66 498.058 1167.86 496.982 1163.33 494.832C1158.94 492.682 1155.07 489.86 1151.74 486.365C1148.41 482.871 1145.81 478.839 1143.95 474.27C1142.08 469.566 1141.15 464.661 1141.15 459.554C1141.15 454.581 1142.08 449.743 1143.95 445.039C1145.81 440.335 1148.41 436.236 1151.74 432.742C1155.07 429.113 1158.94 426.224 1163.33 424.074C1167.86 421.923 1172.66 420.848 1177.72 420.848C1185.45 420.848 1192.05 422.528 1197.51 425.888C1202.97 429.113 1207.64 433.817 1211.5 439.999C1212.17 441.074 1213.17 441.881 1214.5 442.418C1215.83 442.956 1217.16 442.956 1218.5 442.418L1246.88 431.129C1248.08 430.592 1248.88 429.718 1249.28 428.509C1249.68 427.299 1249.54 426.157 1248.88 425.081C1245.01 418.899 1240.75 413.255 1236.09 408.148C1231.56 402.906 1226.43 398.471 1220.7 394.843C1214.97 391.214 1208.57 388.392 1201.51 386.376C1194.45 384.36 1186.52 383.352 1177.72 383.352C1167.07 383.352 1157.07 385.368 1147.74 389.4C1138.42 393.432 1130.22 398.875 1123.16 405.729C1116.23 412.583 1110.77 420.646 1106.77 429.92C1102.78 439.193 1100.78 449.071 1100.78 459.554C1100.78 470.036 1102.78 479.914 1106.77 489.188C1110.77 498.461 1116.23 506.524 1123.16 513.379C1130.22 520.233 1138.42 525.676 1147.74 529.707C1157.07 533.739 1167.07 535.755 1177.72 535.755C1186.25 535.755 1194.05 534.747 1201.11 532.731C1208.17 530.715 1214.57 527.893 1220.3 524.265C1226.16 520.636 1231.42 516.268 1236.09 511.161Z" fill="url(#paint8_linear_30_1367)"/>
<path fill-rule="evenodd" clip-rule="evenodd" d="M1268.91 533.135H1298.69C1300.02 533.135 1301.15 532.664 1302.09 531.723C1303.02 530.783 1303.48 529.64 1303.48 528.296V495.638C1303.48 494.295 1303.95 493.152 1304.88 492.211C1305.82 491.271 1306.95 490.8 1308.28 490.8H1312.68C1314.01 490.8 1315.41 491.204 1316.88 492.01C1318.34 492.682 1319.47 493.555 1320.27 494.631C1324.4 500.544 1328.53 506.39 1332.67 512.169C1336.93 517.948 1341.19 523.66 1345.46 529.304C1346.26 530.379 1347.39 531.32 1348.85 532.127C1350.45 532.799 1351.92 533.135 1353.25 533.135H1390.43C1391.76 533.135 1392.62 532.53 1393.02 531.32C1393.42 529.976 1393.22 528.767 1392.42 527.692C1388.03 521.778 1383.03 515.26 1377.44 508.137C1371.84 501.014 1366.51 494.093 1361.45 487.373C1360.65 486.298 1360.38 485.223 1360.65 484.148C1361.05 482.938 1361.78 481.93 1362.84 481.124C1366.04 479.108 1368.91 476.622 1371.44 473.665C1373.97 470.574 1376.17 467.147 1378.03 463.384C1379.9 459.621 1381.3 455.656 1382.23 451.49C1383.3 447.189 1383.83 442.889 1383.83 438.588C1383.83 430.793 1382.5 423.67 1379.83 417.219C1377.3 410.768 1373.7 405.191 1369.04 400.487C1364.51 395.784 1358.98 392.155 1352.45 389.601C1345.92 386.914 1338.79 385.57 1331.07 385.57H1268.91C1267.58 385.57 1266.44 386.04 1265.51 386.981C1264.58 387.921 1264.11 389.064 1264.11 390.408V528.296C1264.11 529.64 1264.58 530.783 1265.51 531.723C1266.44 532.664 1267.58 533.135 1268.91 533.135ZM1329.47 453.707H1308.28C1306.95 453.707 1305.82 453.237 1304.88 452.296C1303.95 451.356 1303.48 450.213 1303.48 448.869V427.501C1303.48 426.157 1303.95 425.014 1304.88 424.074C1305.82 423.133 1306.95 422.662 1308.28 422.662H1329.47C1332.27 422.662 1334.6 423.267 1336.46 424.477C1338.46 425.552 1339.99 426.963 1341.06 428.71C1342.26 430.323 1343.06 432.07 1343.46 433.952C1343.99 435.699 1344.26 437.244 1344.26 438.588C1344.26 441.142 1343.79 443.359 1342.86 445.241C1341.93 447.122 1340.73 448.735 1339.26 450.079C1337.8 451.288 1336.2 452.229 1334.46 452.901C1332.73 453.439 1331.07 453.707 1329.47 453.707Z" fill="url(#paint9_linear_30_1367)"/>
<path d="M1447.13 435.967V427.501C1447.13 426.157 1447.6 425.014 1448.53 424.074C1449.47 423.133 1450.6 422.662 1451.93 422.662H1514.09C1515.42 422.662 1516.55 422.192 1517.49 421.251C1518.42 420.31 1518.88 419.168 1518.88 417.824V390.408C1518.88 389.064 1518.42 387.921 1517.49 386.981C1516.55 386.04 1515.42 385.57 1514.09 385.57H1412.36C1411.02 385.57 1409.89 386.04 1408.96 386.981C1408.03 387.921 1407.56 389.064 1407.56 390.408V528.296C1407.56 529.64 1408.03 530.783 1408.96 531.723C1409.89 532.664 1411.02 533.135 1412.36 533.135H1514.09C1515.42 533.135 1516.55 532.664 1517.49 531.723C1518.42 530.783 1518.88 529.64 1518.88 528.296V500.477C1518.88 499.133 1518.42 497.99 1517.49 497.05C1516.55 496.109 1515.42 495.638 1514.09 495.638H1451.93C1450.6 495.638 1449.47 495.168 1448.53 494.227C1447.6 493.287 1447.13 492.144 1447.13 490.8V483.14C1447.13 481.796 1447.6 480.654 1448.53 479.713C1449.47 478.772 1450.6 478.302 1451.93 478.302H1506.09C1507.43 478.302 1508.56 477.831 1509.49 476.891C1510.42 475.95 1510.89 474.807 1510.89 473.463V445.644C1510.89 444.3 1510.42 443.157 1509.49 442.217C1508.56 441.276 1507.43 440.806 1506.09 440.806H1451.93C1450.6 440.806 1449.47 440.335 1448.53 439.394C1447.6 438.454 1447.13 437.311 1447.13 435.967Z" fill="url(#paint10_linear_30_1367)"/>
<path fill-rule="evenodd" clip-rule="evenodd" d="M1588.98 387.182C1587.79 387.989 1586.92 388.997 1586.39 390.206L1528.43 526.684C1527.89 527.759 1527.69 528.7 1527.83 529.506C1527.96 530.312 1528.29 530.984 1528.82 531.522C1529.22 532.059 1529.82 532.463 1530.62 532.731C1531.29 533 1531.96 533.135 1532.62 533.135H1567C1568.33 533.135 1569.6 532.731 1570.8 531.925C1572.13 530.984 1573.06 529.909 1573.59 528.7L1579.19 516.604C1579.72 515.394 1580.59 514.387 1581.79 513.58C1583.12 512.639 1584.52 512.169 1585.99 512.169H1628.16C1629.49 512.169 1630.76 512.639 1631.96 513.58C1633.29 514.387 1634.29 515.394 1634.95 516.604L1640.35 528.7C1641.02 529.909 1641.95 530.984 1643.15 531.925C1644.48 532.731 1645.88 533.135 1647.34 533.135H1681.52C1683.65 533.135 1685.05 532.463 1685.72 531.119C1686.52 529.775 1686.65 528.498 1686.12 527.288L1627.76 390.206C1627.23 388.997 1626.29 387.989 1624.96 387.182C1623.76 386.242 1622.49 385.771 1621.16 385.771H1593.18C1591.72 385.771 1590.32 386.242 1588.98 387.182ZM1615.97 477.898H1598.18C1596.71 477.898 1595.71 477.495 1595.18 476.689C1594.65 475.748 1594.65 474.673 1595.18 473.463L1605.17 449.071C1605.71 447.861 1606.31 447.257 1606.97 447.257C1607.64 447.257 1608.24 447.861 1608.77 449.071C1610.37 452.968 1612.1 457.202 1613.97 461.771C1615.83 466.206 1617.43 470.104 1618.76 473.463C1619.43 474.673 1619.43 475.748 1618.76 476.689C1618.23 477.495 1617.3 477.898 1615.97 477.898Z" fill="url(#paint11_linear_30_1367)"/>
<path d="M1752.87 422.662H1780.85C1782.31 422.662 1783.45 422.192 1784.25 421.251C1785.18 420.31 1785.65 419.168 1785.65 417.824V390.408C1785.65 389.064 1785.18 387.921 1784.25 386.981C1783.45 386.04 1782.31 385.57 1780.85 385.57H1675.32C1673.99 385.57 1672.85 386.04 1671.92 386.981C1670.99 387.921 1670.52 389.064 1670.52 390.408V417.824C1670.52 419.168 1670.99 420.31 1671.92 421.251C1672.85 422.192 1673.99 422.662 1675.32 422.662H1703.7C1705.17 422.662 1706.3 423.133 1707.1 424.074C1708.03 425.014 1708.5 426.157 1708.5 427.501V528.296C1708.5 529.64 1708.96 530.783 1709.9 531.723C1710.83 532.664 1711.96 533.135 1713.29 533.135H1743.27C1744.74 533.135 1745.87 532.664 1746.67 531.723C1747.6 530.783 1748.07 529.64 1748.07 528.296V427.501C1748.07 426.157 1748.54 425.014 1749.47 424.074C1750.4 423.133 1751.53 422.662 1752.87 422.662Z" fill="url(#paint12_linear_30_1367)"/>
<path d="M1807.44 533.135H1837.62C1838.96 533.135 1840.09 532.664 1841.02 531.723C1841.95 530.783 1842.42 529.64 1842.42 528.296V390.609C1842.42 389.265 1841.95 388.123 1841.02 387.182C1840.09 386.242 1838.96 385.771 1837.62 385.771H1807.44C1805.98 385.771 1804.78 386.242 1803.85 387.182C1803.05 388.123 1802.65 389.265 1802.65 390.609V528.296C1802.65 529.64 1803.05 530.783 1803.85 531.723C1804.78 532.664 1805.98 533.135 1807.44 533.135Z" fill="url(#paint13_linear_30_1367)"/>
<path d="M1857.38 391.416L1917.74 528.7C1918.4 529.909 1919.34 530.984 1920.54 531.925C1921.87 532.731 1923.2 533.135 1924.53 533.135H1951.12C1952.45 533.135 1953.71 532.731 1954.91 531.925C1956.25 530.984 1957.25 529.909 1957.91 528.7L2018.87 390.609C2019.4 389.534 2019.34 388.459 2018.67 387.384C2018 386.174 2016.94 385.57 2015.47 385.57H1982.29C1980.96 385.57 1979.63 386.04 1978.3 386.981C1977.1 387.787 1976.17 388.795 1975.5 390.005L1940.52 471.044C1939.86 472.254 1938.99 472.859 1937.93 472.859C1936.86 472.859 1935.99 472.254 1935.33 471.044L1900.15 390.005C1899.48 388.795 1898.48 387.787 1897.15 386.981C1895.95 386.04 1894.69 385.57 1893.36 385.57H1860.78C1859.04 385.57 1857.91 386.174 1857.38 387.384C1856.71 388.593 1856.71 389.937 1857.38 391.416Z" fill="url(#paint14_linear_30_1367)"/>
<path d="M2074.25 435.967V427.501C2074.25 426.157 2074.71 425.014 2075.65 424.074C2076.58 423.133 2077.71 422.662 2079.05 422.662H2141.2C2142.54 422.662 2143.67 422.192 2144.6 421.251C2145.53 420.31 2146 419.168 2146 417.824V390.408C2146 389.064 2145.53 387.921 2144.6 386.981C2143.67 386.04 2142.54 385.57 2141.2 385.57H2039.47C2038.14 385.57 2037.01 386.04 2036.07 386.981C2035.14 387.921 2034.68 389.064 2034.68 390.408V528.296C2034.68 529.64 2035.14 530.783 2036.07 531.723C2037.01 532.664 2038.14 533.135 2039.47 533.135H2141.2C2142.54 533.135 2143.67 532.664 2144.6 531.723C2145.53 530.783 2146 529.64 2146 528.296V500.477C2146 499.133 2145.53 497.99 2144.6 497.05C2143.67 496.109 2142.54 495.638 2141.2 495.638H2079.05C2077.71 495.638 2076.58 495.168 2075.65 494.227C2074.71 493.287 2074.25 492.144 2074.25 490.8V483.14C2074.25 481.796 2074.71 480.654 2075.65 479.713C2076.58 478.772 2077.71 478.302 2079.05 478.302H2133.21C2134.54 478.302 2135.67 477.831 2136.61 476.891C2137.54 475.95 2138.01 474.807 2138.01 473.463V445.644C2138.01 444.3 2137.54 443.157 2136.61 442.217C2135.67 441.276 2134.54 440.806 2133.21 440.806H2079.05C2077.71 440.806 2076.58 440.335 2075.65 439.394C2074.71 438.454 2074.25 437.311 2074.25 435.967Z" fill="url(#paint15_linear_30_1367)"/>
<path d="M1237.88 808.192V670.303C1237.88 668.959 1237.42 667.817 1236.48 666.876C1235.55 665.936 1234.42 665.465 1233.09 665.465H1203.11C1201.64 665.465 1200.44 665.936 1199.51 666.876C1198.71 667.817 1198.31 668.959 1198.31 670.303V718.081C1198.31 719.425 1197.84 720.567 1196.91 721.508C1195.98 722.448 1194.85 722.919 1193.51 722.919H1152.34C1150.88 722.919 1149.68 722.448 1148.74 721.508C1147.94 720.567 1147.55 719.425 1147.55 718.081V670.303C1147.55 668.959 1147.08 667.817 1146.15 666.876C1145.21 665.936 1144.08 665.465 1142.75 665.465H1112.97C1111.5 665.465 1110.3 665.936 1109.37 666.876C1108.57 667.817 1108.17 668.959 1108.17 670.303V808.192C1108.17 809.536 1108.57 810.678 1109.37 811.619C1110.3 812.56 1111.5 813.03 1112.97 813.03H1142.75C1144.08 813.03 1145.21 812.56 1146.15 811.619C1147.08 810.678 1147.55 809.536 1147.55 808.192V765.051C1147.55 763.707 1147.94 762.565 1148.74 761.624C1149.68 760.684 1150.88 760.213 1152.34 760.213H1193.51C1194.85 760.213 1195.98 760.684 1196.91 761.624C1197.84 762.565 1198.31 763.707 1198.31 765.051V808.192C1198.31 809.536 1198.71 810.678 1199.51 811.619C1200.44 812.56 1201.64 813.03 1203.11 813.03H1233.09C1234.42 813.03 1235.55 812.56 1236.48 811.619C1237.42 810.678 1237.88 809.536 1237.88 808.192Z" fill="url(#paint16_linear_30_1367)"/>
<path d="M1268.82 667.078C1267.89 668.019 1267.43 669.161 1267.43 670.505V752.15C1267.43 761.692 1268.96 770.36 1272.02 778.155C1275.09 785.95 1279.42 792.602 1285.01 798.112C1290.61 803.623 1297.34 807.923 1305.2 811.014C1313.06 813.971 1321.79 815.449 1331.38 815.449C1340.98 815.449 1349.7 813.971 1357.56 811.014C1365.43 807.923 1372.15 803.623 1377.75 798.112C1383.35 792.602 1387.61 785.95 1390.54 778.155C1393.61 770.36 1395.14 761.692 1395.14 752.15V670.505C1395.14 669.161 1394.67 668.019 1393.74 667.078C1392.81 666.137 1391.67 665.667 1390.34 665.667H1360.16C1358.83 665.667 1357.7 666.137 1356.76 667.078C1355.83 668.019 1355.37 669.161 1355.37 670.505V752.15C1355.37 757.391 1354.5 761.759 1352.77 765.253C1351.17 768.613 1349.17 771.301 1346.77 773.317C1344.37 775.198 1341.77 776.542 1338.98 777.349C1336.18 778.155 1333.65 778.558 1331.38 778.558C1329.12 778.558 1326.58 778.155 1323.79 777.349C1320.99 776.542 1318.32 775.198 1315.79 773.317C1313.39 771.301 1311.33 768.613 1309.6 765.253C1308 761.759 1307.2 757.391 1307.2 752.15V670.505C1307.2 669.161 1306.73 668.019 1305.8 667.078C1304.87 666.137 1303.73 665.667 1302.4 665.667H1272.22C1270.89 665.667 1269.76 666.137 1268.82 667.078Z" fill="url(#paint17_linear_30_1367)"/>
<path fill-rule="evenodd" clip-rule="evenodd" d="M1531.46 741.465C1529.33 739.718 1527.2 738.24 1525.07 737.03C1522.4 735.686 1522.27 734.141 1524.67 732.394C1528.13 729.84 1531.33 726.346 1534.26 721.911C1537.33 717.476 1538.86 712.234 1538.86 706.187C1538.86 698.661 1537.46 692.344 1534.66 687.237C1532 681.996 1528.4 677.762 1523.87 674.537C1519.47 671.311 1514.34 669.027 1508.48 667.683C1502.62 666.204 1496.49 665.465 1490.09 665.465H1429.73C1428.4 665.465 1427.27 665.936 1426.33 666.876C1425.4 667.817 1424.94 668.959 1424.94 670.303V808.192C1424.94 809.536 1425.4 810.678 1426.33 811.619C1427.27 812.56 1428.4 813.03 1429.73 813.03H1493.09C1499.75 813.03 1506.08 812.358 1512.08 811.014C1518.21 809.536 1523.6 807.117 1528.27 803.757C1532.93 800.263 1536.59 795.693 1539.26 790.049C1542.06 784.27 1543.46 777.012 1543.46 768.277C1543.46 763.976 1542.86 760.146 1541.66 756.786C1540.59 753.426 1539.13 750.47 1537.26 747.916C1535.53 745.363 1533.6 743.212 1531.46 741.465ZM1487.89 721.508H1469.31C1467.97 721.508 1466.84 721.037 1465.91 720.096C1464.98 719.156 1464.51 718.013 1464.51 716.669V707.396C1464.51 706.052 1464.98 704.91 1465.91 703.969C1466.84 703.028 1467.97 702.558 1469.31 702.558H1488.29C1490.03 702.558 1491.82 703.432 1493.69 705.179C1495.69 706.926 1496.69 709.009 1496.69 711.428C1496.69 713.982 1495.89 716.333 1494.29 718.484C1492.69 720.5 1490.56 721.508 1487.89 721.508ZM1469.31 754.77H1490.29C1493.76 754.77 1496.49 756.047 1498.49 758.6C1500.62 761.02 1501.68 763.439 1501.68 765.858C1501.68 768.546 1500.62 770.898 1498.49 772.913C1496.35 774.929 1494.09 775.937 1491.69 775.937H1469.31C1467.97 775.937 1466.84 775.467 1465.91 774.526C1464.98 773.585 1464.51 772.443 1464.51 771.099V759.608C1464.51 758.264 1464.98 757.122 1465.91 756.181C1466.84 755.241 1467.97 754.77 1469.31 754.77Z" fill="url(#paint18_linear_30_1367)"/>
<defs>
<linearGradient id="paint0_linear_30_1367" x1="1073" y1="0" x2="1073" y2="1073" gradientUnits="userSpaceOnUse">
<stop stop-color="#FFD700"/>
<stop offset="1" stop-color="#19DA66"/>
</linearGradient>
<linearGradient id="paint1_linear_30_1367" x1="1073" y1="0" x2="1073" y2="1073" gradientUnits="userSpaceOnUse">
<stop stop-color="#FFD700"/>
<stop offset="1" stop-color="#19DA66"/>
</linearGradient>
<linearGradient id="paint2_linear_30_1367" x1="1073" y1="0" x2="1073" y2="1073" gradientUnits="userSpaceOnUse">
<stop stop-color="#FFD700"/>
<stop offset="1" stop-color="#19DA66"/>
</linearGradient>
<linearGradient id="paint3_linear_30_1367" x1="1073" y1="0" x2="1073" y2="1073" gradientUnits="userSpaceOnUse">
<stop stop-color="#FFD700"/>
<stop offset="1" stop-color="#19DA66"/>
</linearGradient>
<linearGradient id="paint4_linear_30_1367" x1="1073" y1="0" x2="1073" y2="1073" gradientUnits="userSpaceOnUse">
<stop stop-color="#FFD700"/>
<stop offset="1" stop-color="#19DA66"/>
</linearGradient>
<linearGradient id="paint5_linear_30_1367" x1="1073" y1="0" x2="1073" y2="1073" gradientUnits="userSpaceOnUse">
<stop stop-color="#FFD700"/>
<stop offset="1" stop-color="#19DA66"/>
</linearGradient>
<linearGradient id="paint6_linear_30_1367" x1="1073" y1="0" x2="1073" y2="1073" gradientUnits="userSpaceOnUse">
<stop stop-color="#FFD700"/>
<stop offset="1" stop-color="#19DA66"/>
</linearGradient>
<linearGradient id="paint7_linear_30_1367" x1="1073" y1="0" x2="1073" y2="1073" gradientUnits="userSpaceOnUse">
<stop stop-color="#FFD700"/>
<stop offset="1" stop-color="#19DA66"/>
</linearGradient>
<linearGradient id="paint8_linear_30_1367" x1="1073" y1="0" x2="1073" y2="1073" gradientUnits="userSpaceOnUse">
<stop stop-color="#FFD700"/>
<stop offset="1" stop-color="#19DA66"/>
</linearGradient>
<linearGradient id="paint9_linear_30_1367" x1="1073" y1="0" x2="1073" y2="1073" gradientUnits="userSpaceOnUse">
<stop stop-color="#FFD700"/>
<stop offset="1" stop-color="#19DA66"/>
</linearGradient>
<linearGradient id="paint10_linear_30_1367" x1="1073" y1="0" x2="1073" y2="1073" gradientUnits="userSpaceOnUse">
<stop stop-color="#FFD700"/>
<stop offset="1" stop-color="#19DA66"/>
</linearGradient>
<linearGradient id="paint11_linear_30_1367" x1="1073" y1="0" x2="1073" y2="1073" gradientUnits="userSpaceOnUse">
<stop stop-color="#FFD700"/>
<stop offset="1" stop-color="#19DA66"/>
</linearGradient>
<linearGradient id="paint12_linear_30_1367" x1="1073" y1="0" x2="1073" y2="1073" gradientUnits="userSpaceOnUse">
<stop stop-color="#FFD700"/>
<stop offset="1" stop-color="#19DA66"/>
</linearGradient>
<linearGradient id="paint13_linear_30_1367" x1="1073" y1="0" x2="1073" y2="1073" gradientUnits="userSpaceOnUse">
<stop stop-color="#FFD700"/>
<stop offset="1" stop-color="#19DA66"/>
</linearGradient>
<linearGradient id="paint14_linear_30_1367" x1="1073" y1="0" x2="1073" y2="1073" gradientUnits="userSpaceOnUse">
<stop stop-color="#FFD700"/>
<stop offset="1" stop-color="#19DA66"/>
</linearGradient>
<linearGradient id="paint15_linear_30_1367" x1="1073" y1="0" x2="1073" y2="1073" gradientUnits="userSpaceOnUse">
<stop stop-color="#FFD700"/>
<stop offset="1" stop-color="#19DA66"/>
</linearGradient>
<linearGradient id="paint16_linear_30_1367" x1="1073" y1="0" x2="1073" y2="1073" gradientUnits="userSpaceOnUse">
<stop stop-color="#FFD700"/>
<stop offset="1" stop-color="#19DA66"/>
</linearGradient>
<linearGradient id="paint17_linear_30_1367" x1="1073" y1="0" x2="1073" y2="1073" gradientUnits="userSpaceOnUse">
<stop stop-color="#FFD700"/>
<stop offset="1" stop-color="#19DA66"/>
</linearGradient>
<linearGradient id="paint18_linear_30_1367" x1="1073" y1="0" x2="1073" y2="1073" gradientUnits="userSpaceOnUse">
<stop stop-color="#FFD700"/>
<stop offset="1" stop-color="#19DA66"/>
</linearGradient>
</defs>
</svg>
